<?xml version="1.0" encoding="UTF-8"?>
<svg version="1.1" xmlns="http://www.w3.org/2000/svg" width="373" height="79">
<path d="M0 0 C3.66030319 2.21192515 6.03784402 4.85050528 8.4375 8.375 C8.4375 9.365 8.4375 10.355 8.4375 11.375 C6.4575 12.365 4.4775 13.355 2.4375 14.375 C1.4165625 13.2303125 1.4165625 13.2303125 0.375 12.0625 C-3.22918508 8.76505407 -6.55936187 6.52050088 -11.578125 6.27734375 C-16.46176115 6.65946032 -19.75838296 8.19015783 -23.5625 11.375 C-26.68072614 15.24590142 -27.70794262 19.44813125 -27.5625 24.375 C-26.41240979 29.94061512 -24.06478274 33.81505551 -19.5625 37.375 C-14.79281586 39.70684558 -10.60122606 39.78022241 -5.5625 38.375 C-1.8530697 36.31420539 0.08130056 34.90929917 2.4375 31.375 C-3.1725 31.045 -8.7825 30.715 -14.5625 30.375 C-12.5625 25.375 -12.5625 25.375 -11.5625 23.375 C-3.6425 23.375 4.2775 23.375 12.4375 23.375 C11.24949313 32.879055 9.65685092 38.05127 2.31640625 44.1484375 C-4.16487506 48.37946106 -11.07011669 48.04532648 -18.5625 47.375 C-26.20424348 45.36528164 -30.52303762 39.77410397 -34.4375 33.25 C-36.75167073 27.04634956 -36.61424592 19.78733119 -34.68359375 13.5234375 C-31.72798868 7.06597693 -27.66169357 2.40015526 -21.26953125 -0.7578125 C-14.72169274 -2.85538847 -6.311345 -2.89069237 0 0 Z " fill="#FFFFFF" transform="translate(328.5625,29.625)"/>
<path d="M0 0 C5.81354213 3.51312976 10.56861999 8.99167469 12.5625 15.5 C13.33187565 23.48898205 13.90507051 31.98176634 8.5625 38.5 C3.755294 43.53803218 -0.58567819 47.05806392 -7.671875 47.87109375 C-15.4516914 48.01804584 -21.36293532 47.67647709 -27.4375 42.5 C-33.79420486 35.81378992 -35.8945539 29.40033983 -35.68359375 20.2421875 C-35.02742112 12.93054957 -31.85861211 7.4000899 -26.4375 2.5 C-19.32477243 -3.12054696 -8.18925024 -3.57581297 0 0 Z M-25.4375 13.5 C-28.31468223 18.2145407 -28.06040791 23.142992 -27.4375 28.5 C-25.1150295 33.32359257 -21.86866366 36.517486 -17.4375 39.5 C-12.44200569 41.18934766 -8.05530803 40.64449893 -3.26171875 38.58203125 C1.26086394 35.8994715 4.20716625 31.55169852 5.5625 26.5 C6.23755905 20.53697836 4.84256462 16.38814825 1.5625 11.5 C-2.0927525 7.93847192 -5.7278739 5.85652975 -10.8125 5.1875 C-17.10022718 5.93603895 -21.38923344 8.75774488 -25.4375 13.5 Z " fill="#FFFFFF" transform="translate(212.4375,29.5)"/>
<path d="M0 0 C6.42376373 3.42600732 10.16496639 8.36248862 13.015625 15 C15.21518518 24.00065422 13.51048229 31.19508966 9.328125 39.25 C5.71449347 43.54729154 1.3265598 46.2296884 -3.984375 48 C-11.67924405 48.6421163 -18.68664075 48.89977566 -24.984375 44 C-30.71439792 38.97610111 -33.89434141 33.57286496 -34.984375 26 C-35.26911481 17.82920554 -32.8967686 11.46338699 -27.671875 5.25 C-19.38127881 -1.69096425 -10.6439122 -3.5665465 0 0 Z M-23.921875 13.0625 C-27.29096324 17.8608984 -27.79784191 22.28724374 -26.984375 28 C-24.72848826 33.54248036 -21.37223489 37.30607006 -15.984375 40 C-11.08210635 41.36174129 -7.52198138 41.09265171 -2.9140625 39.15625 C1.42425296 36.55677353 4.4294216 32.7586102 6.015625 28 C6.5791918 22.31014289 6.34358933 17.83091597 3.015625 13 C-0.27092774 9.20576838 -3.39759672 6.73407349 -8.421875 5.875 C-14.85513706 5.57909186 -19.75131504 8.28248858 -23.921875 13.0625 Z " fill="#FFFFFF" transform="translate(74.984375,29)"/>
<path d="M0 0 C3.06398451 -0.13530844 6.12197126 -0.2342407 9.1875 -0.3125 C10.05181641 -0.35439453 10.91613281 -0.39628906 11.80664062 -0.43945312 C16.21923723 -0.52398563 18.37488419 -0.42564418 22.109375 2.1171875 C24.40443251 5.61667602 24.41721544 7.31211089 24.0625 11.4375 C23.72079121 16.54941379 23.72079121 16.54941379 26 21 C29.29310192 25.93965288 28.83013096 31.25348997 28 37 C25.97905761 41.86185731 22.76841806 44.81447506 18 47 C14.88242606 47.35267168 11.81959687 47.28316455 8.6875 47.1875 C5.820625 47.125625 2.95375 47.06375 0 47 C0 38.42 0 29.84 0 21 C-2.31 21 -4.62 21 -7 21 C-5.68 18.36 -4.36 15.72 -3 13 C-2.01 13 -1.02 13 0 13 C0 8.71 0 4.42 0 0 Z M8 7 C8 8.98 8 10.96 8 13 C10.64 13 13.28 13 16 13 C16.6814823 11.10820797 16.6814823 11.10820797 17 9 C15.04366025 6.58878141 15.04366025 6.58878141 11.375 6.875 C9.704375 6.936875 9.704375 6.936875 8 7 Z M8 21 C8 27.27 8 33.54 8 40 C14.80668255 39.78087517 14.80668255 39.78087517 19.0625 36.375 C21.26192835 33.13205888 21.26192835 33.13205888 21.1875 29.4375 C19.66209574 25.02185608 17.94380481 23.45557658 14 21 C12.02 21 10.04 21 8 21 Z " fill="#FFFFFF" transform="translate(7,29)"/>
<path d="M0 0 C4.031728 2.2375035 6.53712295 4.61136885 8 9 C8.085409 11.94964113 8.11582927 14.87503019 8.09765625 17.82421875 C8.0962413 18.68561966 8.09482635 19.54702057 8.09336853 20.43452454 C8.0877714 23.18555169 8.07521946 25.93649744 8.0625 28.6875 C8.05748463 30.5527332 8.05292179 32.41796767 8.04882812 34.28320312 C8.03780292 38.85550011 8.02054027 43.42773625 8 48 C5.36 48 2.72 48 0 48 C0 44.04 0 40.08 0 36 C-3.63 36 -7.26 36 -11 36 C-11 39.96 -11 43.92 -11 48 C-13.64 48 -16.28 48 -19 48 C-19 44.04 -19 40.08 -19 36 C-20.98 36 -22.96 36 -25 36 C-23.68 33.36 -22.36 30.72 -21 28 C-20.34 28 -19.68 28 -19 28 C-19.04640625 26.69804688 -19.0928125 25.39609375 -19.140625 24.0546875 C-19.17815847 22.32814804 -19.21455693 20.60158364 -19.25 18.875 C-19.28351563 18.0190625 -19.31703125 17.163125 -19.3515625 16.28125 C-19.43810899 10.65572829 -18.83621336 7.4129867 -15 3 C-10.65273554 -1.17018648 -5.71218103 -1.01514078 0 0 Z M-9.171875 8.453125 C-11.83328975 12.16090795 -11.44145535 15.3097087 -11.25 19.75 C-11.23195313 20.54277344 -11.21390625 21.33554687 -11.1953125 22.15234375 C-11.14833082 24.10208348 -11.07659044 26.05119878 -11 28 C-7.37 28 -3.74 28 0 28 C0.107834 25.06152347 0.18721916 22.12698849 0.25 19.1875 C0.28351563 18.35412109 0.31703125 17.52074219 0.3515625 16.66210938 C0.55713108 11.86547526 0.55713108 11.86547526 -1.828125 7.92578125 C-4.91084706 6.61174325 -6.36681177 6.57635607 -9.171875 8.453125 Z " fill="#FFFFFF" transform="translate(278,28)"/>
<path d="M0 0 C6.93 0 13.86 0 21 0 C21.99 3.3 22.98 6.6 24 10 C26.47667848 12.17850995 26.47667848 12.17850995 29 13 C28.39489631 16.32217201 27.59159551 19.41446258 26.44946289 22.59082031 C25.97876122 23.90678192 25.97876122 23.90678192 25.49855042 25.24932861 C25.16000534 26.18283142 24.82146027 27.11633423 24.47265625 28.078125 C24.12367783 29.04530457 23.7746994 30.01248413 23.41514587 31.00897217 C22.67816532 33.04703625 21.93923526 35.08439629 21.19848633 37.12109375 C20.06256908 40.24980973 18.93828398 43.38255055 17.81445312 46.515625 C17.09706179 48.49504827 16.37898654 50.47422384 15.66015625 52.453125 C15.32363541 53.39472473 14.98711456 54.33632446 14.64039612 55.30645752 C14.32344284 56.17115662 14.00648956 57.03585571 13.67993164 57.92675781 C13.40315079 58.69111145 13.12636993 59.45546509 12.84120178 60.24298096 C12 62 12 62 10 63 C5.79780391 52.41562896 1.73643077 41.77640019 -2.23739624 31.10430908 C-2.74588857 29.74286253 -3.25763174 28.38262573 -3.77261353 27.02362061 C-4.50320134 25.09317432 -5.22171915 23.15863324 -5.9375 21.22265625 C-6.35902344 20.09609619 -6.78054687 18.96953613 -7.21484375 17.80883789 C-8 15 -8 15 -7 12 C-5.68 11.34 -4.36 10.68 -3 10 C-2.01 6.7 -1.02 3.4 0 0 Z M3.8125 7.5 C2.91144531 7.9640625 2.01039063 8.428125 1.08203125 8.90625 C0.39496094 9.2671875 -0.29210937 9.628125 -1 10 C1.03849004 17.19386557 3.48156368 24.15709165 6.1875 31.125 C6.55552734 32.08148438 6.92355469 33.03796875 7.30273438 34.0234375 C8.19855445 36.35024289 9.09767773 38.67571021 10 41 C13.59613657 37.40386343 14.74053316 32.18892016 16.47827148 27.47827148 C17.18502843 25.56917622 17.90737399 23.66648027 18.63085938 21.76367188 C19.07623047 20.56419922 19.52160156 19.36472656 19.98046875 18.12890625 C20.39192139 17.02619385 20.80337402 15.92348145 21.22729492 14.78735352 C22.29324366 11.94944873 22.29324366 11.94944873 21 9 C19.01425798 7.75653172 19.01425798 7.75653172 16.625 6.8125 C15.83351562 6.46832031 15.04203125 6.12414062 14.2265625 5.76953125 C9.94817851 4.29086169 7.65247045 5.50521016 3.8125 7.5 Z " fill="#FFFFFF" transform="translate(147,16)"/>
<path d="M0 0 C2.59535969 3.24419961 4.8434575 6.17378536 7.015625 9.64453125 C7.54414062 10.48564453 8.07265625 11.32675781 8.6171875 12.19335938 C9.15601562 13.05767578 9.69484375 13.92199219 10.25 14.8125 C10.80429688 15.69615234 11.35859375 16.57980469 11.9296875 17.49023438 C13.28920772 19.65843473 14.64497961 21.82898462 16 24 C16.33 17.07 16.66 10.14 17 3 C19.64 3 22.28 3 25 3 C25 19.5 25 36 25 53 C21.89022077 49.89022077 19.98420917 47.65410305 17.765625 44.015625 C17.19199219 43.08105469 16.61835937 42.14648438 16.02734375 41.18359375 C15.44082031 40.21550781 14.85429688 39.24742188 14.25 38.25 C13.64800781 37.26644531 13.04601562 36.28289063 12.42578125 35.26953125 C10.94551298 32.84941011 9.47208338 30.42510845 8 28 C7.67 35.26 7.34 42.52 7 50 C4.69 50 2.38 50 0 50 C0 33.5 0 17 0 0 Z " fill="#FFFFFF" transform="translate(95,26)"/>
<path d="M0 0 C7.92 0 15.84 0 24 0 C24 2.31 24 4.62 24 7 C18.39 7 12.78 7 7 7 C7 8.98 7 10.96 7 13 C10.63 13 14.26 13 18 13 C18 15.64 18 18.28 18 21 C14.37 21 10.74 21 7 21 C7 27.27 7 33.54 7 40 C12.61 40 18.22 40 24 40 C24 42.31 24 44.62 24 47 C16.08 47 8.16 47 0 47 C0 38.42 0 29.84 0 21 C-2.31 21 -4.62 21 -7 21 C-5.68 18.36 -4.36 15.72 -3 13 C-2.01 13 -1.02 13 0 13 C0 8.71 0 4.42 0 0 Z " fill="#FFFFFF" transform="translate(349,29)"/>
<path d="M0 0 C2.64 0 5.28 0 8 0 C9.98 4.29 11.96 8.58 14 13 C16.27694716 10.72305284 16.92947387 8.93161848 18.0625 5.9375 C19.90277778 1.09722222 19.90277778 1.09722222 21 0 C23.67058851 -0.14115161 26.32432238 -0.04247107 29 0 C27.65499114 4.35149925 26.25529827 8.53892195 24.27734375 12.64453125 C18.8792254 24.13125746 17.91361986 34.37616027 18 47 C15.69 47 13.38 47 11 47 C11.04382813 45.75089844 11.08765625 44.50179687 11.1328125 43.21484375 C11.24358973 28.76332305 7.39625433 17.93449449 0.90209961 5.11865234 C0 3 0 3 0 0 Z " fill="#FFFFFF" transform="translate(226,29)"/>
<path d="M0 0 C3.96 0 7.92 0 12 0 C12 1.65 12 3.3 12 5 C7.71 5 3.42 5 -1 5 C-0.67 3.35 -0.34 1.7 0 0 Z " fill="#FFFFFF" transform="translate(152,10)"/>
<path d="M0 0 C1.65 0 3.3 0 5 0 C5 2.97 5 5.94 5 9 C3.35 9 1.7 9 0 9 C0 6.03 0 3.06 0 0 Z " fill="#FFFFFF" transform="translate(155,0)"/>
</svg>
